<mxfile host="app.diagrams.net" modified="2023-06-15T18:24:10.195Z" agent="Mozilla/5.0 (Macintosh; Intel Mac OS X 10.15; rv:109.0) Gecko/20100101 Firefox/113.0" etag="aclG4kIc47Zd5adMnYFX" version="21.4.0" type="github">
  <diagram name="Page-1" id="VSWq6WUx7vdK3LiRvMI-">
    <mxGraphModel dx="23140" dy="27350" grid="1" gridSize="1" guides="1" tooltips="1" connect="1" arrows="1" fold="1" page="1" pageScale="1" pageWidth="15500" pageHeight="21600" math="0" shadow="0">
      <root>
        <mxCell id="0" />
        <mxCell id="1" parent="0" />
        <mxCell id="CYPGqg_bPA5jT41xCzCh-1" value="" style="verticalLabelPosition=bottom;html=1;verticalAlign=top;align=center;shape=mxgraph.floorplan.wall;fillColor=strokeColor;strokeColor=default;" parent="1" vertex="1">
          <mxGeometry x="31.500000000000004" y="74.80000000000001" width="14960.599999999999" height="9.8425" as="geometry" />
        </mxCell>
        <mxCell id="CYPGqg_bPA5jT41xCzCh-3" value="3800mm" style="shape=dimension;whiteSpace=wrap;html=1;align=center;points=[];verticalAlign=bottom;spacingBottom=3;labelBackgroundColor=none;fontSize=150;" parent="1" vertex="1">
          <mxGeometry x="32" y="26" width="14960.599999999999" height="40" as="geometry" />
        </mxCell>
        <mxCell id="CYPGqg_bPA5jT41xCzCh-4" value="" style="verticalLabelPosition=bottom;html=1;verticalAlign=top;align=center;shape=mxgraph.floorplan.wall;fillColor=strokeColor;direction=south;" parent="1" vertex="1">
          <mxGeometry x="31.5" y="74.8" width="10" height="9842.5" as="geometry" />
        </mxCell>
        <mxCell id="CYPGqg_bPA5jT41xCzCh-5" value="&lt;div style=&quot;font-size: 150px;&quot;&gt;2500mm&lt;/div&gt;" style="shape=dimension;direction=north;whiteSpace=wrap;html=1;align=center;points=[];verticalAlign=bottom;labelBackgroundColor=none;horizontal=0;spacingBottom=3;fontSize=150;" parent="1" vertex="1">
          <mxGeometry x="-18" y="74.8" width="40" height="9842.5" as="geometry" />
        </mxCell>
        <mxCell id="CYPGqg_bPA5jT41xCzCh-6" value="" style="verticalLabelPosition=bottom;html=1;verticalAlign=top;align=center;shape=mxgraph.floorplan.wall;fillColor=strokeColor;" parent="1" vertex="1">
          <mxGeometry x="31.5" y="9907.3" width="3149.6" height="9.8425" as="geometry" />
        </mxCell>
        <mxCell id="CYPGqg_bPA5jT41xCzCh-7" value="800mm" style="shape=dimension;direction=west;whiteSpace=wrap;html=1;align=center;points=[];verticalAlign=top;spacingTop=-15;labelBackgroundColor=none;fontSize=150;" parent="1" vertex="1">
          <mxGeometry x="31.5" y="9929" width="3149.6" height="40" as="geometry" />
        </mxCell>
        <mxCell id="OyKJgOamNikpW8Svxv2X-1" value="" style="verticalLabelPosition=bottom;html=1;verticalAlign=top;align=center;shape=mxgraph.floorplan.wall;fillColor=strokeColor;direction=south;" vertex="1" parent="1">
          <mxGeometry x="3182" y="9917.3" width="10" height="9842.5" as="geometry" />
        </mxCell>
        <mxCell id="OyKJgOamNikpW8Svxv2X-2" value="2500mm" style="shape=dimension;direction=north;whiteSpace=wrap;html=1;align=center;points=[];verticalAlign=bottom;labelBackgroundColor=none;horizontal=0;spacingBottom=3;fontSize=150;" vertex="1" parent="1">
          <mxGeometry x="3127" y="9917.3" width="40" height="9842.5" as="geometry" />
        </mxCell>
        <mxCell id="OyKJgOamNikpW8Svxv2X-3" value="" style="verticalLabelPosition=bottom;html=1;verticalAlign=top;align=center;shape=mxgraph.floorplan.wall;fillColor=strokeColor;" vertex="1" parent="1">
          <mxGeometry x="3182" y="19749.8" width="11811" height="10" as="geometry" />
        </mxCell>
        <mxCell id="OyKJgOamNikpW8Svxv2X-4" value="&lt;div style=&quot;font-size: 150px;&quot;&gt;3000mm&lt;/div&gt;" style="shape=dimension;direction=west;whiteSpace=wrap;html=1;align=center;points=[];verticalAlign=top;spacingTop=-15;labelBackgroundColor=none;" vertex="1" parent="1">
          <mxGeometry x="3181.1" y="19775" width="11811" height="40" as="geometry" />
        </mxCell>
        <mxCell id="OyKJgOamNikpW8Svxv2X-5" value="" style="verticalLabelPosition=bottom;html=1;verticalAlign=top;align=center;shape=mxgraph.floorplan.wall;fillColor=strokeColor;direction=south;" vertex="1" parent="1">
          <mxGeometry x="14982.1" y="74.80000000000001" width="10" height="19685" as="geometry" />
        </mxCell>
        <mxCell id="OyKJgOamNikpW8Svxv2X-6" value="5000mm" style="shape=dimension;direction=south;whiteSpace=wrap;html=1;align=center;points=[];verticalAlign=top;labelBackgroundColor=none;horizontal=0;spacingTop=-15;fontSize=150;" vertex="1" parent="1">
          <mxGeometry x="15014" y="74.80000000000001" width="40" height="19685" as="geometry" />
        </mxCell>
      </root>
    </mxGraphModel>
  </diagram>
</mxfile>
